<?xml version="1.0" encoding="UTF-8"?>
<!--Generator: Apple Native CoreSVG 232.5-->
<!DOCTYPE svg
PUBLIC "-//W3C//DTD SVG 1.1//EN"
       "http://www.w3.org/Graphics/SVG/1.1/DTD/svg11.dtd">
<svg version="1.1" xmlns="http://www.w3.org/2000/svg" xmlns:xlink="http://www.w3.org/1999/xlink" width="24.6409" height="24.2916">
 <g>
  <rect height="24.2916" opacity="0" width="24.6409" x="0" y="0"/>
  <path d="M24.2795 4.54259L24.2795 19.7634C24.2795 22.6714 22.6496 24.2916 19.7249 24.2916L4.55236 24.2916C1.62995 24.2916 0 22.6737 0 19.7634L0 4.54259C0 1.63226 1.62995 0.0218362 4.55236 0.0218362L19.7249 0.0218362C22.6496 0.0218362 24.2795 1.63456 24.2795 4.54259ZM9.79893 6.60781C8.84632 6.60781 8.23078 7.13898 8.23078 7.98537C8.23078 8.83177 8.84117 9.36524 9.78115 9.36524L11.6163 9.36524L13.0982 9.15446L11.3644 10.6615L7.25198 14.7716C6.92929 15.0868 6.7398 15.5255 6.7398 15.9515C6.7398 16.8995 7.45748 17.53 8.33372 17.53C8.80344 17.53 9.2025 17.3801 9.57741 17.0126L13.6479 12.9473L15.1503 11.2158L14.974 12.7759L14.974 14.4835C14.974 15.4309 15.5074 16.039 16.3561 16.039C17.1928 16.039 17.7188 15.424 17.7188 14.4863L17.7188 8.47845C17.7188 7.2669 17.0143 6.60781 15.8309 6.60781Z" fill="#000000" fill-opacity="0.85"/>
 </g>
</svg>
