<?xml version="1.0" encoding="UTF-8"?>
<!--Generator: Apple Native CoreSVG 232.5-->
<!DOCTYPE svg
PUBLIC "-//W3C//DTD SVG 1.1//EN"
       "http://www.w3.org/Graphics/SVG/1.1/DTD/svg11.dtd">
<svg version="1.1" xmlns="http://www.w3.org/2000/svg" xmlns:xlink="http://www.w3.org/1999/xlink" width="27.1661" height="26.8076">
 <g>
  <rect height="26.8076" opacity="0" width="27.1661" x="0" y="0"/>
  <path d="M26.8048 13.4064C26.8048 20.7624 20.7595 26.8076 13.4012 26.8076C6.04523 26.8076 0 20.7624 0 13.4064C0 6.04808 6.03546 0.00285089 13.3915 0.00285089C20.7572 0.00285089 26.8048 6.04808 26.8048 13.4064ZM11.2494 11.2101C10.5218 11.2101 9.9516 11.7631 9.9516 12.4562C9.9516 13.1987 10.5218 13.7121 11.2494 13.7121L12.4314 13.7121L12.4314 18.0597L10.9892 18.0597C10.2668 18.0597 9.6989 18.6053 9.6989 19.2984C9.6989 20.0483 10.2668 20.5543 10.9892 20.5543L16.3574 20.5543C17.0798 20.5543 17.6425 20.0483 17.6425 19.2984C17.6425 18.6053 17.0798 18.0597 16.3574 18.0597L15.2584 18.0597L15.2584 12.8329C15.2584 11.8441 14.7766 11.2101 13.8446 11.2101ZM11.3796 7.45603C11.3796 8.55184 12.2996 9.47418 13.4029 9.47418C14.5061 9.47418 15.4089 8.55184 15.4089 7.45603C15.4089 6.31545 14.5061 5.42296 13.4029 5.42296C12.2996 5.42296 11.3796 6.31545 11.3796 7.45603Z" fill="#ffffff" fill-opacity="0.85"/>
 </g>
</svg>
