<?xml version="1.0" encoding="UTF-8"?>
<!--Generator: Apple Native CoreSVG 232.5-->
<!DOCTYPE svg
PUBLIC "-//W3C//DTD SVG 1.1//EN"
       "http://www.w3.org/Graphics/SVG/1.1/DTD/svg11.dtd">
<svg version="1.1" xmlns="http://www.w3.org/2000/svg" xmlns:xlink="http://www.w3.org/1999/xlink" width="14.3231" height="22.1646">
 <g>
  <rect height="22.1646" opacity="0" width="14.3231" x="0" y="0"/>
  <path d="M2.0893 22.1646C3.29612 22.1646 4.18376 21.2965 4.18376 20.1345L4.18376 2.03477C4.18376 0.877876 3.29612 0.00976562 2.0893 0.00976562C0.887642 0.00976562 0 0.877876 0 2.03477L0 20.1345C0 21.2965 0.887642 22.1646 2.0893 22.1646ZM11.8673 22.1646C13.0741 22.1646 13.9618 21.2965 13.9618 20.1345L13.9618 2.03477C13.9618 0.877876 13.0741 0.00976562 11.8673 0.00976562C10.6656 0.00976562 9.778 0.877876 9.778 2.03477L9.778 20.1345C9.778 21.2965 10.6656 22.1646 11.8673 22.1646Z" fill="#ffffff"/>
 </g>
</svg>
