<?xml version="1.0" encoding="UTF-8"?>
<!--Generator: Apple Native CoreSVG 232.5-->
<!DOCTYPE svg
PUBLIC "-//W3C//DTD SVG 1.1//EN"
       "http://www.w3.org/Graphics/SVG/1.1/DTD/svg11.dtd">
<svg version="1.1" xmlns="http://www.w3.org/2000/svg" xmlns:xlink="http://www.w3.org/1999/xlink" width="27.1661" height="26.8076">
 <g>
  <rect height="26.8076" opacity="0" width="27.1661" x="0" y="0"/>
  <path d="M26.8048 13.4064C26.8048 20.7624 20.7595 26.8076 13.4012 26.8076C6.04523 26.8076 0 20.7624 0 13.4064C0 6.04808 6.03546 0.00285089 13.3915 0.00285089C20.7572 0.00285089 26.8048 6.04808 26.8048 13.4064ZM15.4552 8.28532L13.5282 11.3034L13.4248 11.3034L11.414 8.27555C10.9013 7.47635 10.52 7.2128 9.81834 7.2128C8.90194 7.2128 8.24043 7.83755 8.24043 8.70688C8.24043 9.13007 8.3834 9.4803 8.73077 9.92358L11.2607 13.342L8.64167 16.8558C8.31613 17.287 8.18293 17.6252 8.18293 18.0461C8.18293 18.9033 8.8203 19.504 9.72923 19.504C10.4188 19.504 10.7909 19.2479 11.3203 18.4268L13.3478 15.411L13.4488 15.411L15.412 18.4268C15.9116 19.2329 16.3009 19.504 17.0054 19.504C17.9436 19.504 18.5833 18.9033 18.5833 18.0219C18.5833 17.6085 18.4404 17.256 18.1148 16.8294L15.5148 13.3684L18.1217 9.88045C18.457 9.45155 18.6 9.07949 18.6 8.68274C18.6 7.82318 17.9603 7.2128 17.0342 7.2128C16.3319 7.2128 15.938 7.49127 15.4552 8.28532Z" fill="#000000"/>
 </g>
</svg>
